<svg width="348" height="369" viewBox="0 0 348 369" fill="none" xmlns="http://www.w3.org/2000/svg">
<path d="M0 0L66.5 159.5L174.5 216L279.5 159.5L347.5 0H0Z" fill="url(#paint0_linear_225_547)"/>
<path d="M263.333 154.424C203.733 168.424 179.167 199.924 174.333 213.924C174.333 213.924 171.333 367.424 174.333 368.424C181.333 369.924 187.833 361.924 191.333 359.424C193.833 356.924 225.833 336.924 243.833 329.424C255.333 325.924 269.933 323.024 276.333 321.424C282.733 319.824 283.667 307.091 283.333 300.924V166.424C283.333 160.924 280.833 150.314 263.333 154.424Z" fill="#7059FF"/>
<path d="M85.6769 154.424C145.277 168.424 169.844 199.924 174.677 213.924C174.677 213.924 177.677 367.424 174.677 368.424C167.677 369.924 161.177 361.924 157.677 359.424C155.177 356.924 123.177 336.924 105.177 329.424C93.6769 325.924 79.0769 323.024 72.6769 321.424C66.2769 319.824 65.3436 307.091 65.6769 300.924V166.424C65.6769 160.924 68.1769 150.314 85.6769 154.424Z" fill="url(#paint1_linear_225_547)"/>
<defs>
<linearGradient id="paint0_linear_225_547" x1="174" y1="17.9185" x2="174" y2="433.458" gradientUnits="userSpaceOnUse">
<stop stop-color="#FFEB9C" stop-opacity="0.05"/>
<stop offset="0.396967" stop-color="#FFD452" stop-opacity="0.50125"/>
<stop offset="1" stop-color="#FF7F00"/>
</linearGradient>
<linearGradient id="paint1_linear_225_547" x1="69.5" y1="228.5" x2="120.814" y2="368.61" gradientUnits="userSpaceOnUse">
<stop stop-color="#7059FF"/>
<stop offset="1" stop-color="#433699"/>
</linearGradient>
</defs>
</svg>
